# xmcd
#
# Track frame offsets: 
#        150
#        13582
#        27272
#        46897
#        79480
#        83690
#        111715
#        121280
#        134870
#        148650
#        174322
#        181225
#
# Disc length: 3240 seconds
#
# Revision: 0
# Processed by: cddbd v1.5.2PL0 Copyright (c) Steve Scherf et al.
# Submitted via: ExactAudioCopy v0.95b4
#
DISCID=a60ca60c
DTITLE=Stevie Ray Vaughan - Crawlin To Texas Disc 1 (The Power Station
DTITLE=March 1985)
DYEAR=1985
DGENRE=
TTITLE0=01 Look Over Younder Wall #1
TTITLE1=02 Look Over Younder Wall #2
TTITLE2=03 The Sky Is Crying
TTITLE3=04 May I Have A Talk With You
TTITLE4=05 Come On #1
TTITLE5=06 Come On #2
TTITLE6=07 You're Gonna Miss Me #1
TTITLE7=08 You're Gonna Miss Me #2
TTITLE8=09 You're Gonna Miss Me #3
TTITLE9=10 Instrumental
TTITLE10=11 Life Without You #1
TTITLE11=12 Life Without You #2
EXTD=
EXTT0=
EXTT1=
EXTT2=
EXTT3=
EXTT4=
EXTT5=
EXTT6=
EXTT7=
EXTT8=
EXTT9=
EXTT10=
EXTT11=
PLAYORDER=
